<?xml version="1.0" encoding="UTF-8" standalone="no"?>
<!-- Created with Inkscape (http://www.inkscape.org/) -->

<svg
   xmlns:dc="http://purl.org/dc/elements/1.1/"
   xmlns:cc="http://creativecommons.org/ns#"
   xmlns:rdf="http://www.w3.org/1999/02/22-rdf-syntax-ns#"
   xmlns:svg="http://www.w3.org/2000/svg"
   xmlns="http://www.w3.org/2000/svg"
   xmlns:sodipodi="http://sodipodi.sourceforge.net/DTD/sodipodi-0.dtd"
   xmlns:inkscape="http://www.inkscape.org/namespaces/inkscape"
   width="210mm"
   height="297mm"
   viewBox="0 0 210 297"
   version="1.1"
   id="svg8"
   inkscape:version="0.92.2 (5c3e80d, 2017-08-06)"
   sodipodi:docname="OB.svg">
  <defs
     id="defs2" />
  <sodipodi:namedview
     id="base"
     pagecolor="#ffffff"
     bordercolor="#666666"
     borderopacity="1.0"
     inkscape:pageopacity="0.0"
     inkscape:pageshadow="2"
     inkscape:zoom="0.5"
     inkscape:cx="450.57001"
     inkscape:cy="409.81745"
     inkscape:document-units="px"
     inkscape:current-layer="layer2"
     showgrid="true"
     inkscape:showpageshadow="false"
     showguides="false"
     inkscape:window-width="1920"
     inkscape:window-height="1017"
     inkscape:window-x="-8"
     inkscape:window-y="-8"
     inkscape:window-maximized="1">
    <inkscape:grid
       type="xygrid"
       id="grid4614" />
  </sodipodi:namedview>
  <metadata
     id="metadata5">
    <rdf:RDF>
      <cc:Work
         rdf:about="">
        <dc:format>image/svg+xml</dc:format>
        <dc:type
           rdf:resource="http://purl.org/dc/dcmitype/StillImage" />
        <dc:title></dc:title>
      </cc:Work>
    </rdf:RDF>
  </metadata>
  <g
     inkscape:groupmode="layer"
     id="layer2"
     inkscape:label="text"
     style="display:inline">
    <g
       aria-label="

О Б"
       style="font-style:normal;font-weight:normal;font-size:10.58333302px;line-height:1.25;font-family:sans-serif;letter-spacing:0px;word-spacing:0px;display:inline;opacity:0.98999999;fill:#000000;fill-opacity:1;stroke:none;stroke-width:0.26458332"
       id="text3705"
       transform="matrix(12.338516,0,0,12.338516,-1098.5114,-559.22973)">
      <path
         d="m 89.033011,58.687363 q -0.0395,-1.501422 0.730944,-2.350911 0.770467,-0.849489 2.291638,-0.849489 1.501411,0 2.271878,0.869244 0.770454,0.849489 0.730944,2.331156 l -0.237067,7.862711 q -0.079,1.323623 -0.750707,2.094089 -0.671684,0.750711 -2.015048,0.750711 -1.363131,0 -2.054568,-0.750711 -0.691447,-0.770466 -0.730957,-2.094089 z m 2.173098,7.605889 q 0.0395,0.671689 0.217307,0.968022 0.19755,0.296334 0.632177,0.296334 0.434617,0 0.612417,-0.296334 0.1778,-0.296333 0.21731,-0.968022 l 0.197557,-7.329311 q 0,-0.829734 -0.237067,-1.224845 -0.21731,-0.414866 -0.790217,-0.414866 -0.572907,0 -0.809974,0.414866 -0.23707,0.414867 -0.23707,1.224845 z"
         style="opacity:0.99299999;fill:#000000;fill-opacity:1;stroke:none;stroke-width:0.26458332"
         id="path3771"
         inkscape:connector-curvature="0" />
      <path
         d="m 100.14555,55.684518 h 5.59081 v 3.872089 h -1.97555 v -2.034823 h -1.63972 v 2.923823 q 1.69898,0 2.80529,0.928511 1.10632,0.908755 1.10632,2.8448 l -0.0198,0.414867 -0.29634,4.761089 h -5.57105 z m 3.71403,11.873089 0.19756,-2.923822 q 0.15804,-2.350912 -1.93605,-2.350912 v 5.274734 z"
         style="font-style:normal;font-variant:normal;font-weight:normal;font-stretch:condensed;font-size:19.75555611px;font-family:Dobrozrachniy;-inkscape-font-specification:'Dobrozrachniy, Condensed';font-variant-ligatures:normal;font-variant-caps:normal;font-variant-numeric:normal;font-feature-settings:normal;text-align:start;writing-mode:lr-tb;text-anchor:start;opacity:0.99299999;fill:#000000;fill-opacity:1;stroke:none;stroke-width:0.26458332"
         id="path3773"
         inkscape:connector-curvature="0" />
      <path
         style="opacity:0.99299999;fill:#000000;fill-opacity:1;stroke:none;stroke-width:0.26458332;stroke-opacity:1"
         d="m 365,177.51953 v 5 h -10 v 10 h 10 v 5 h -20 v 10 h 20 v 18.33399 l -10,-3.33399 v 10 l 10,3.33399 v 26.66601 h 10 v -23.33398 l 10,3.33398 v -10 l -10,-3.33398 v -21.66602 h 20 v -10 h -20 v -5 h 10 v -10 h -10 v -5 z"
         transform="matrix(0.26458333,0,0,0.26458333,-0.39615573,-0.06345964)"
         id="rect4616"
         inkscape:connector-curvature="0" />
    </g>
  </g>
</svg>
